# xmcd
#
# Track frame offsets:
#	151
#	24140
#	51835
#	78157
#	102852
#	132197
#	143304
#	166471
#	181991
#	211133
#	228749
#	252653
#
# Disc length: 3672 seconds
#
# Revision: 0
# Processed by: cddbd v1.5.2PL0 Copyright (c) Steve Scherf et al.
# Submitted via: dBpowerAMP V4.0
#
DISCID=960e560c
DTITLE=Swingshift - Rocks!
DYEAR=2005
DGENRE=Country
TTITLE0=Shake Rattle and Roll
TTITLE1=Caledonia
TTITLE2=Pretty Woman
TTITLE3=Further Up The Road
TTITLE4=You Got Me Runnin'
TTITLE5=Twist and Shout
TTITLE6=Georgia
TTITLE7=Rockin' Robin
TTITLE8=Stand By Me
TTITLE9=Rock This Town
TTITLE10=The Road
TTITLE11=Twistin' The Night Away
EXTD=
EXTT0=
EXTT1=
EXTT2=
EXTT3=
EXTT4=
EXTT5=
EXTT6=
EXTT7=
EXTT8=
EXTT9=
EXTT10=
EXTT11=
PLAYORDER=
